<svg width="44" height="44" viewBox="0 0 44 44" fill="none" xmlns="http://www.w3.org/2000/svg">
<g clip-path="url(#clip0)">
<path d="M43.4835 40.5162C43.4833 40.5157 43.4832 40.5152 43.483 40.5146L32.7691 0.528387C32.6671 0.148681 32.277 -0.0770375 31.897 0.0237774L22.243 2.61035C22.1106 2.6496 21.9928 2.7274 21.9047 2.83375V1.30136C21.9047 0.907201 21.5851 0.587627 21.191 0.587627H1.20641C0.81225 0.587627 0.492676 0.907201 0.492676 1.30136V42.6979C0.492676 43.0921 0.81225 43.4117 1.20641 43.4117H21.191C21.5851 43.4117 21.9047 43.0921 21.9047 42.6979V4.10491L32.4522 43.4709C32.5359 43.7829 32.8187 43.9998 33.1417 43.9998C33.2034 43.9993 33.2647 43.9912 33.3244 43.9755L42.9763 41.3889C43.3573 41.288 43.5844 40.8973 43.4835 40.5162ZM10.485 41.9842H1.92014V2.0151H10.485V41.9842ZM20.4772 41.9842H11.9124V2.0151H20.4772V41.9842ZM33.6463 42.4124L23.3022 3.80443L31.5751 1.58685L41.9192 40.1949L33.6463 42.4124Z" fill="black"/>
<path d="M8.34379 4.87024H4.06139C3.66723 4.87024 3.34766 5.18981 3.34766 5.58398C3.34766 5.97814 3.66723 6.29771 4.06139 6.29771H8.34379C8.73795 6.29771 9.05752 5.97814 9.05752 5.58398C9.05752 5.18981 8.73795 4.87024 8.34379 4.87024Z" fill="black"/>
<path d="M8.34379 7.72522H4.06139C3.66723 7.72522 3.34766 8.04479 3.34766 8.43895C3.34766 8.83311 3.66723 9.15269 4.06139 9.15269H8.34379C8.73795 9.15269 9.05752 8.83311 9.05752 8.43895C9.05752 8.04479 8.73795 7.72522 8.34379 7.72522Z" fill="black"/>
<path d="M18.336 4.87024H14.0536C13.6594 4.87024 13.3398 5.18981 13.3398 5.58398C13.3398 5.97814 13.6594 6.29771 14.0536 6.29771H18.336C18.7301 6.29771 19.0497 5.97814 19.0497 5.58398C19.0497 5.18981 18.7301 4.87024 18.336 4.87024Z" fill="black"/>
<path d="M18.336 7.72522H14.0536C13.6594 7.72522 13.3398 8.04479 13.3398 8.43895C13.3398 8.83311 13.6594 9.15269 14.0536 9.15269H18.336C18.7301 9.15269 19.0497 8.83311 19.0497 8.43895C19.0497 8.04479 18.7301 7.72522 18.336 7.72522Z" fill="black"/>
<path d="M31.1402 5.41817C31.0484 5.0348 30.6631 4.79847 30.2798 4.89027C30.2673 4.89331 30.2549 4.89661 30.2426 4.90027L26.103 6.00798C25.7217 6.10808 25.4938 6.49832 25.5939 6.87954C25.694 7.26076 26.0842 7.48871 26.4654 7.38861C26.4676 7.38808 26.4697 7.38745 26.472 7.38692L30.6123 6.27849C30.9957 6.18668 31.232 5.80153 31.1402 5.41817Z" fill="black"/>
<path d="M31.8614 8.16194C31.7593 7.78116 31.3678 7.55527 30.987 7.65733H30.9842L26.8481 8.76576C26.4668 8.86586 26.2389 9.25609 26.339 9.63732C26.4391 10.0185 26.8293 10.2465 27.2106 10.1464C27.2127 10.1459 27.2148 10.1452 27.2171 10.1447L31.3567 9.03626C31.7375 8.9342 31.9634 8.54272 31.8614 8.16194Z" fill="black"/>
<path d="M38.8741 34.3575C38.771 33.9798 38.383 33.7556 38.0043 33.855L33.8646 34.9634C33.4838 35.0653 33.2578 35.4566 33.3596 35.8374C33.4432 36.1496 33.7262 36.3667 34.0495 36.3666H34.0523C34.1147 36.3665 34.1769 36.3584 34.2372 36.3423L38.3733 35.2339C38.7535 35.1302 38.9777 34.7379 38.8741 34.3575Z" fill="black"/>
<path d="M39.6194 37.1153C39.5164 36.7376 39.1283 36.5134 38.7496 36.6128L34.6092 37.7212C34.2285 37.8231 34.0024 38.2144 34.1043 38.5952C34.1879 38.9074 34.4709 39.1245 34.7941 39.1244C34.8565 39.1245 34.9187 39.1161 34.979 39.0994L39.1186 37.9917C39.4989 37.888 39.7231 37.4957 39.6194 37.1153Z" fill="black"/>
<path d="M18.336 34.847H14.0536C13.6594 34.847 13.3398 35.1666 13.3398 35.5608C13.3398 35.9549 13.6594 36.2745 14.0536 36.2745H18.336C18.7301 36.2745 19.0497 35.9549 19.0497 35.5608C19.0497 35.1666 18.7301 34.847 18.336 34.847Z" fill="black"/>
<path d="M18.336 37.702H14.0536C13.6594 37.702 13.3398 38.0216 13.3398 38.4158C13.3398 38.8099 13.6594 39.1295 14.0536 39.1295H18.336C18.7301 39.1295 19.0497 38.8099 19.0497 38.4158C19.0497 38.0216 18.7301 37.702 18.336 37.702Z" fill="black"/>
<path d="M8.34379 34.847H4.06139C3.66723 34.847 3.34766 35.1666 3.34766 35.5608C3.34766 35.9549 3.66723 36.2745 4.06139 36.2745H8.34379C8.73795 36.2745 9.05752 35.9549 9.05752 35.5608C9.05752 35.1666 8.73795 34.847 8.34379 34.847Z" fill="black"/>
<path d="M8.34379 37.702H4.06139C3.66723 37.702 3.34766 38.0216 3.34766 38.4158C3.34766 38.8099 3.66723 39.1295 4.06139 39.1295H8.34379C8.73795 39.1295 9.05752 38.8099 9.05752 38.4158C9.05752 38.0216 8.73795 37.702 8.34379 37.702Z" fill="black"/>
</g>
<defs>
<clipPath id="clip0">
<rect width="44" height="44" fill="white"/>
</clipPath>
</defs>
</svg>
