<svg width="20" height="20" viewBox="0 0 20 20" fill="none" xmlns="http://www.w3.org/2000/svg">
<rect width="20" height="20" rx="8" fill="#0183F6"/>
<path d="M14.9286 8.92857H11.2857C11.1674 8.92857 11.0714 8.83262 11.0714 8.71429V5.07143C11.0714 4.47974 10.5917 4 10 4C9.40831 4 8.92857 4.47974 8.92857 5.07143V8.71429C8.92857 8.83262 8.83262 8.92857 8.71429 8.92857H5.07143C4.47974 8.92857 4 9.40831 4 10C4 10.5917 4.47974 11.0714 5.07143 11.0714H8.71429C8.83262 11.0714 8.92857 11.1674 8.92857 11.2857V14.9286C8.92857 15.5203 9.40831 16 10 16C10.5917 16 11.0714 15.5203 11.0714 14.9286V11.2857C11.0714 11.1674 11.1674 11.0714 11.2857 11.0714H14.9286C15.5203 11.0714 16 10.5917 16 10C16 9.40831 15.5203 8.92857 14.9286 8.92857Z" fill="white"/>
</svg>
